
<svg xmlns="http://www.w3.org/2000/svg" width="1019" height="325" viewBox="0 0 1019 325" fill="none">
<defs>
    <linearGradient id="paint0_linear_6_25" x1="144.699" y1="299.958" x2="144.699" y2="323.62" gradientUnits="userSpaceOnUse">
      <stop stop-color="#3E7C58"/>
      <stop offset="1" stop-color="#AF9716"/>
    </linearGradient>
    <style>
      .fade-in-svg {
        opacity: 0;
        animation: fadeIn 5s forwards;
      }
      @keyframes fadeIn {
        to { opacity: 1; }
      }
    </style>
  </defs>
<path class="fade-in-svg" d="M0 300.241C0 299.003 1.24244 298 2.77505 298H1016.16C1017.69 298 1018.93 299.003 1018.93 300.241V322.091C1018.93 323.328 1017.69 324.332 1016.16 324.332H2.77502C1.2424 324.332 0 323.328 0 322.091V300.241Z" fill="url(#paint0_linear_6_25)"/><path d="M0 2.24102C0 1.00334 1.24244 0 2.77505 0H283.545C285.077 0 286.32 1.00334 286.32 2.24102V24.091C286.32 25.3286 285.077 26.332 283.545 26.332H2.77505C1.24243 26.332 0 25.3286 0 24.091V2.24102Z" fill="black"/>
<path d="M0 44.241C0 43.0033 1.24244 42 2.77505 42H249.689C251.221 42 252.464 43.0033 252.464 44.241V66.091C252.464 67.3285 251.221 68.332 249.689 68.332H2.77505C1.24243 68.332 0 67.3285 0 66.091V44.241Z" fill="black"/>
<path d="M0 87.241C0 86.0035 1.24244 85 2.77505 85H361.801C363.333 85 364.576 86.0035 364.576 87.241V109.091C364.576 110.328 363.333 111.332 361.801 111.332H2.77506C1.24244 111.332 0 110.328 0 109.091V87.241Z" fill="black"/>
<path d="M0 131.241C0 130.004 1.24244 129 2.77505 129H562.714C564.246 129 565.49 130.004 565.49 131.241V153.091C565.49 154.328 564.246 155.332 562.714 155.332H2.77507C1.24245 155.332 0 154.328 0 153.091V131.241Z" fill="black"/>
<path d="M0 173.393C0 172.155 1.24244 171.152 2.77505 171.152H760.298C761.83 171.152 763.073 172.155 763.073 173.393V195.243C763.073 196.48 761.83 197.484 760.298 197.484H2.77504C1.24242 197.484 0 196.48 0 195.243V173.393Z" fill="black"/>
<path d="M0 216.241C0 215.004 1.24244 214 2.77505 214H637.641C639.173 214 640.416 215.004 640.416 216.241V238.091C640.416 239.328 639.173 240.332 637.641 240.332H2.77505C1.24243 240.332 0 239.328 0 238.091V216.241Z" fill="black"/>
<path d="M0 258.241C0 257.004 1.24244 256 2.77505 256H703.687C705.219 256 706.462 257.004 706.462 258.241V280.091C706.462 281.329 705.219 282.332 703.687 282.332H2.77503C1.24241 282.332 0 281.329 0 280.091V258.241Z" fill="black"/>

<script xmlns=""/></svg>